<svg version="1.1" id="Layer_1" xmlns="http://www.w3.org/2000/svg" xmlns:xlink="http://www.w3.org/1999/xlink" x="0px" y="0px"
	 width="621.127px" height="621.127px" viewBox="0 0 621.127 621.127" enable-background="new 0 0 621.127 621.127"
	 xml:space="preserve">
  <rect x="20" y="20.562" fill="#DADBDC" width="581.127" height="580.562"/>
  <g>
  	<path fill="#F3F4F4" d="M252.666,362.11l-13.139-23.752c4.043-9.096,7.074-16.678,9.096-22.994l-43.209,12.635l19.205,65.697
  		c1.768,6.064,8.338,9.602,14.402,8.086l43.967-12.889l-18.446-63.928C258.982,344.171,252.666,362.11,252.666,362.11z"/>
  	<path fill="#F3F4F4" d="M222.849,289.844c0,0,15.919-10.613,28.806-9.854l-6.063-20.467l-43.967,12.887
  		c-6.317,1.769-9.855,8.086-8.086,14.403l6.569,22.236l26.784-7.833C225.376,297.424,223.86,293.634,222.849,289.844z"/>
  	<path fill="#F3F4F4" d="M297.896,259.017c3.537,5.559,6.316,13.645,8.086,19.204l97.533-28.3l-6.568-22.236
  		c-1.77-6.317-8.34-9.854-14.402-8.086l-118.002,34.365l5.56,19.204C278.692,263.312,297.896,259.017,297.896,259.017z"/>
  	<path fill="#F3F4F4" d="M0.218,0v621.127h621.128V0H0.218z M422.466,357.31l-180.917,52.557
  		c-10.865,3.033-22.236-3.031-25.269-13.896L185.2,289.085c-3.032-10.865,3.032-22.236,13.897-25.268l180.919-52.558
  		c10.865-3.032,22.236,3.033,25.268,13.897l31.08,106.885C439.396,342.907,433.331,354.276,422.466,357.31z"/>
  	<path fill="#F3F4F4" d="M409.075,268.871l-111.937,32.596c5.559,4.295,12.633,9.349,21.224,15.161l5.053,26.531
  		c0,0-22.993-16.424-42.449-31.838l20.973,72.014l118.253-34.363c6.064-1.77,9.602-8.34,8.086-14.404L409.075,268.871z"/>
  </g>
</svg>
